<svg xmlns="http://www.w3.org/2000/svg" width="70" height="80" fill="none"><path fill="#317CFF" d="M70 19.913v40.162L35 80V39.84l35-19.926Z"/><path fill="#15A0FF" d="M0 19.913v40.162L35 80V39.84L0 19.913Z"/><path fill="#01CCFF" d="M70 19.913 35 0 0 19.913l35 19.925 35-19.925Z"/><path fill="#4EBEFF" d="M59.331 26.04v27.911l-24.327 13.85V39.888L59.331 26.04Z"/><path fill="#66CEFF" d="M10.678 26.04v27.911l24.326 13.85V39.888L10.678 26.04Z"/><path fill="#78E8FF" d="M59.331 26.04 35.004 12.2 10.678 26.04l24.326 13.85 24.327-13.85Z"/><path fill="#80D5FF" d="M48.722 32.125v15.746L35 55.68V39.937l13.722-7.811Z"/><path fill="#A1E4FF" d="M21.282 32.125v15.746L35 55.68V39.937l-13.718-7.811Z"/><path fill="#B3F6FF" d="M48.722 32.125 35 24.318l-13.718 7.807L35 39.937l13.722-7.812Z"/></svg>