<?xml version="1.0" encoding="utf-8"?>
<svg version="1.1" id="Layer_1" xmlns="http://www.w3.org/2000/svg" xmlns:xlink="http://www.w3.org/1999/xlink" x="0px" y="0px"
	 viewBox="0 0 1024 1110.2" style="enable-background:new 0 0 1024 1110.2;" xml:space="preserve">
<style type="text/css">
	.st0{fill:#0D80D8;}
</style>
<path class="st0" d="M79.7,828.1C159.1,777,252.4,689.3,217,586c-19.3-56.3-46-104.5-49.6-165.4c-3-51.4,4.7-103.3,22.6-151.5
	C261.2,77.9,472.9-12.6,664.3,44.9c177.2,53.2,299.1,259,225.7,438.3c-42.4,103.5-61.4,183.4,33.2,263.9
	c25.6,21.8,87.8,54.5,87.6,93.2c-0.3,50.7-99.7-10.8-110.8-19.6c12.6,22.1,138,152.8,58.2,162.1c-73.4,8.6-138.3-94-182.4-138
	c-74.1-74-61.2,89.7-61.6,123.5c-0.5,53.4-38.2,161.5-105.9,91.1c-55.9-58.1-34.8-150.9-73.6-215.5C492,773,421.2,914.5,403.5,940.4
	c-19.8,28.9-118.7,169-158,94.4c-31.9-60.5,19.1-155.5,44.2-210.3c-9.2,19.9-74,49.3-93,58.9c-42.8,21.6-86.3,34.4-134.4,31
	C-37.3,907.2,39.1,854.3,79.7,828.1C93.3,819.4,67,836.4,79.7,828.1z"/>
</svg>
